<svg xmlns="http://www.w3.org/2000/svg" width="980" height="560">
<rect x="0" y="0" width="980" height="560" fill="white"/>
<text x="490" y="42" text-anchor="middle" font-family="Helvetica, Arial, sans-serif" font-size="24" font-weight="700" fill="#222">Graph 2 - ER Demand Over Time</text>
<text x="490" y="68" text-anchor="middle" font-family="Helvetica, Arial, sans-serif" font-size="15" fill="#444">Monthly ER visits remain consistently high across 2023.</text>
<line x1="90" y1="460" x2="930" y2="460" stroke="#333" stroke-width="2"/>
<line x1="90" y1="460" x2="90" y2="90" stroke="#333" stroke-width="2"/>
<line x1="90" y1="460.00" x2="930" y2="460.00" stroke="#e6e6e6" stroke-width="1"/>
<text x="80" y="465.00" text-anchor="end" font-family="Helvetica, Arial, sans-serif" font-size="12" fill="#555">38233</text>
<line x1="90" y1="386.00" x2="930" y2="386.00" stroke="#e6e6e6" stroke-width="1"/>
<text x="80" y="391.00" text-anchor="end" font-family="Helvetica, Arial, sans-serif" font-size="12" fill="#555">41288</text>
<line x1="90" y1="312.00" x2="930" y2="312.00" stroke="#e6e6e6" stroke-width="1"/>
<text x="80" y="317.00" text-anchor="end" font-family="Helvetica, Arial, sans-serif" font-size="12" fill="#555">44343</text>
<line x1="90" y1="238.00" x2="930" y2="238.00" stroke="#e6e6e6" stroke-width="1"/>
<text x="80" y="243.00" text-anchor="end" font-family="Helvetica, Arial, sans-serif" font-size="12" fill="#555">47398</text>
<line x1="90" y1="164.00" x2="930" y2="164.00" stroke="#e6e6e6" stroke-width="1"/>
<text x="80" y="169.00" text-anchor="end" font-family="Helvetica, Arial, sans-serif" font-size="12" fill="#555">50453</text>
<line x1="90" y1="90.00" x2="930" y2="90.00" stroke="#e6e6e6" stroke-width="1"/>
<text x="80" y="95.00" text-anchor="end" font-family="Helvetica, Arial, sans-serif" font-size="12" fill="#555">53509</text>
<polyline points="90.00,323.71 166.36,429.17 242.73,263.76 319.09,233.87 395.45,163.27 471.82,224.26 548.18,120.83 624.55,186.64 700.91,262.41 777.27,198.97 853.64,252.47 930.00,231.38" fill="none" stroke="#0b5fff" stroke-width="3" stroke-linecap="round" stroke-linejoin="round"/>
<circle cx="90.00" cy="323.71" r="4.5" fill="#0b5fff"/>
<text x="90.00" y="313.71" text-anchor="middle" font-family="Helvetica, Arial, sans-serif" font-size="11" fill="#1f2937">43860</text>
<text x="90.00" y="486.00" text-anchor="middle" font-family="Helvetica, Arial, sans-serif" font-size="11" fill="#222">2023-01</text>
<circle cx="166.36" cy="429.17" r="4.5" fill="#0b5fff"/>
<text x="166.36" y="419.17" text-anchor="middle" font-family="Helvetica, Arial, sans-serif" font-size="11" fill="#1f2937">39506</text>
<text x="166.36" y="486.00" text-anchor="middle" font-family="Helvetica, Arial, sans-serif" font-size="11" fill="#222">2023-02</text>
<circle cx="242.73" cy="263.76" r="4.5" fill="#0b5fff"/>
<text x="242.73" y="253.76" text-anchor="middle" font-family="Helvetica, Arial, sans-serif" font-size="11" fill="#1f2937">46335</text>
<text x="242.73" y="486.00" text-anchor="middle" font-family="Helvetica, Arial, sans-serif" font-size="11" fill="#222">2023-03</text>
<circle cx="319.09" cy="233.87" r="4.5" fill="#0b5fff"/>
<text x="319.09" y="223.87" text-anchor="middle" font-family="Helvetica, Arial, sans-serif" font-size="11" fill="#1f2937">47569</text>
<text x="319.09" y="486.00" text-anchor="middle" font-family="Helvetica, Arial, sans-serif" font-size="11" fill="#222">2023-04</text>
<circle cx="395.45" cy="163.27" r="4.5" fill="#0b5fff"/>
<text x="395.45" y="153.27" text-anchor="middle" font-family="Helvetica, Arial, sans-serif" font-size="11" fill="#1f2937">50484</text>
<text x="395.45" y="486.00" text-anchor="middle" font-family="Helvetica, Arial, sans-serif" font-size="11" fill="#222">2023-05</text>
<circle cx="471.82" cy="224.26" r="4.5" fill="#0b5fff"/>
<text x="471.82" y="214.26" text-anchor="middle" font-family="Helvetica, Arial, sans-serif" font-size="11" fill="#1f2937">47966</text>
<text x="471.82" y="486.00" text-anchor="middle" font-family="Helvetica, Arial, sans-serif" font-size="11" fill="#222">2023-06</text>
<circle cx="548.18" cy="120.83" r="4.5" fill="#0b5fff"/>
<text x="548.18" y="110.83" text-anchor="middle" font-family="Helvetica, Arial, sans-serif" font-size="11" fill="#1f2937">52236</text>
<text x="548.18" y="486.00" text-anchor="middle" font-family="Helvetica, Arial, sans-serif" font-size="11" fill="#222">2023-07</text>
<circle cx="624.55" cy="186.64" r="4.5" fill="#0b5fff"/>
<text x="624.55" y="176.64" text-anchor="middle" font-family="Helvetica, Arial, sans-serif" font-size="11" fill="#1f2937">49519</text>
<text x="624.55" y="486.00" text-anchor="middle" font-family="Helvetica, Arial, sans-serif" font-size="11" fill="#222">2023-08</text>
<circle cx="700.91" cy="262.41" r="4.5" fill="#0b5fff"/>
<text x="700.91" y="252.41" text-anchor="middle" font-family="Helvetica, Arial, sans-serif" font-size="11" fill="#1f2937">46391</text>
<text x="700.91" y="486.00" text-anchor="middle" font-family="Helvetica, Arial, sans-serif" font-size="11" fill="#222">2023-09</text>
<circle cx="777.27" cy="198.97" r="4.5" fill="#0b5fff"/>
<text x="777.27" y="188.97" text-anchor="middle" font-family="Helvetica, Arial, sans-serif" font-size="11" fill="#1f2937">49010</text>
<text x="777.27" y="486.00" text-anchor="middle" font-family="Helvetica, Arial, sans-serif" font-size="11" fill="#222">2023-10</text>
<circle cx="853.64" cy="252.47" r="4.5" fill="#0b5fff"/>
<text x="853.64" y="242.47" text-anchor="middle" font-family="Helvetica, Arial, sans-serif" font-size="11" fill="#1f2937">46801</text>
<text x="853.64" y="486.00" text-anchor="middle" font-family="Helvetica, Arial, sans-serif" font-size="11" fill="#222">2023-11</text>
<circle cx="930.00" cy="231.38" r="4.5" fill="#0b5fff"/>
<text x="930.00" y="221.38" text-anchor="middle" font-family="Helvetica, Arial, sans-serif" font-size="11" fill="#1f2937">47672</text>
<text x="930.00" y="486.00" text-anchor="middle" font-family="Helvetica, Arial, sans-serif" font-size="11" fill="#222">2023-12</text>
<text x="510.00" y="525" text-anchor="middle" font-family="Helvetica, Arial, sans-serif" font-size="13" fill="#333">Month</text>
<text x="22" y="275.00" text-anchor="middle" transform="rotate(-90 22 275.00)" font-family="Helvetica, Arial, sans-serif" font-size="13" fill="#333">ER visits</text>
</svg>