<svg xmlns="http://www.w3.org/2000/svg" width="900" height="520">
<rect x="0" y="0" width="900" height="520" fill="white"/>
<text x="450" y="42" text-anchor="middle" font-family="Helvetica, Arial, sans-serif" font-size="24" font-weight="700" fill="#222">Graph 1 - CTAS Distribution (Total ER)</text>
<text x="860" y="70" text-anchor="end" font-family="Helvetica, Arial, sans-serif" font-size="15" font-weight="600" fill="#333">Overall low-level ratio: 36.61%</text>
<line x1="90" y1="430" x2="860" y2="430" stroke="#333" stroke-width="2"/>
<line x1="90" y1="430" x2="90" y2="80" stroke="#333" stroke-width="2"/>
<line x1="90" y1="430.00" x2="860" y2="430.00" stroke="#e6e6e6" stroke-width="1"/>
<text x="80" y="435.00" text-anchor="end" font-family="Helvetica, Arial, sans-serif" font-size="12" fill="#555">0</text>
<line x1="90" y1="360.00" x2="860" y2="360.00" stroke="#e6e6e6" stroke-width="1"/>
<text x="80" y="365.00" text-anchor="end" font-family="Helvetica, Arial, sans-serif" font-size="12" fill="#555">46899</text>
<line x1="90" y1="290.00" x2="860" y2="290.00" stroke="#e6e6e6" stroke-width="1"/>
<text x="80" y="295.00" text-anchor="end" font-family="Helvetica, Arial, sans-serif" font-size="12" fill="#555">93798</text>
<line x1="90" y1="220.00" x2="860" y2="220.00" stroke="#e6e6e6" stroke-width="1"/>
<text x="80" y="225.00" text-anchor="end" font-family="Helvetica, Arial, sans-serif" font-size="12" fill="#555">140698</text>
<line x1="90" y1="150.00" x2="860" y2="150.00" stroke="#e6e6e6" stroke-width="1"/>
<text x="80" y="155.00" text-anchor="end" font-family="Helvetica, Arial, sans-serif" font-size="12" fill="#555">187597</text>
<line x1="90" y1="80.00" x2="860" y2="80.00" stroke="#e6e6e6" stroke-width="1"/>
<text x="80" y="85.00" text-anchor="end" font-family="Helvetica, Arial, sans-serif" font-size="12" fill="#555">234497</text>
<rect x="120.80" y="423.67" width="92.40" height="6.33" fill="#0b5fff" rx="3" ry="3"/>
<text x="167.00" y="415.67" text-anchor="middle" font-family="Helvetica, Arial, sans-serif" font-size="13" fill="#222">4239</text>
<text x="167.00" y="454.00" text-anchor="middle" font-family="Helvetica, Arial, sans-serif" font-size="14" fill="#222">CTAS1</text>
<rect x="274.80" y="249.53" width="92.40" height="180.47" fill="#2a8bf2" rx="3" ry="3"/>
<text x="321.00" y="241.53" text-anchor="middle" font-family="Helvetica, Arial, sans-serif" font-size="13" fill="#222">120916</text>
<text x="321.00" y="454.00" text-anchor="middle" font-family="Helvetica, Arial, sans-serif" font-size="14" fill="#222">CTAS2</text>
<rect x="428.80" y="80.00" width="92.40" height="350.00" fill="#36b9cc" rx="3" ry="3"/>
<text x="475.00" y="72.00" text-anchor="middle" font-family="Helvetica, Arial, sans-serif" font-size="13" fill="#222">234497</text>
<text x="475.00" y="454.00" text-anchor="middle" font-family="Helvetica, Arial, sans-serif" font-size="14" fill="#222">CTAS3</text>
<rect x="582.80" y="149.68" width="92.40" height="280.32" fill="#7cc36b" rx="3" ry="3"/>
<text x="629.00" y="141.68" text-anchor="middle" font-family="Helvetica, Arial, sans-serif" font-size="13" fill="#222">187811</text>
<text x="629.00" y="454.00" text-anchor="middle" font-family="Helvetica, Arial, sans-serif" font-size="14" fill="#222">CTAS4</text>
<rect x="736.80" y="400.32" width="92.40" height="29.68" fill="#f4a261" rx="3" ry="3"/>
<text x="783.00" y="392.32" text-anchor="middle" font-family="Helvetica, Arial, sans-serif" font-size="13" fill="#222">19886</text>
<text x="783.00" y="454.00" text-anchor="middle" font-family="Helvetica, Arial, sans-serif" font-size="14" fill="#222">CTAS5</text>
</svg>