<svg xmlns="http://www.w3.org/2000/svg" width="1500" height="760">
<rect x="0" y="0" width="1500" height="760" fill="white"/>
<text x="750" y="42" text-anchor="middle" font-family="Helvetica, Arial, sans-serif" font-size="24" font-weight="700" fill="#222">Graph 3 - Low-Acuity Ratio by Hospital</text>
<text x="750" y="68" text-anchor="middle" font-family="Helvetica, Arial, sans-serif" font-size="15" fill="#444">Low acuity = (CTAS4 + CTAS5) / Total ER visits</text>
<line x1="90" y1="530" x2="1450" y2="530" stroke="#333" stroke-width="2"/>
<line x1="90" y1="530" x2="90" y2="90" stroke="#333" stroke-width="2"/>
<line x1="90" y1="530.00" x2="1450" y2="530.00" stroke="#e6e6e6" stroke-width="1"/>
<text x="80" y="535.00" text-anchor="end" font-family="Helvetica, Arial, sans-serif" font-size="12" fill="#555">0%</text>
<line x1="90" y1="442.00" x2="1450" y2="442.00" stroke="#e6e6e6" stroke-width="1"/>
<text x="80" y="447.00" text-anchor="end" font-family="Helvetica, Arial, sans-serif" font-size="12" fill="#555">19%</text>
<line x1="90" y1="354.00" x2="1450" y2="354.00" stroke="#e6e6e6" stroke-width="1"/>
<text x="80" y="359.00" text-anchor="end" font-family="Helvetica, Arial, sans-serif" font-size="12" fill="#555">37%</text>
<line x1="90" y1="266.00" x2="1450" y2="266.00" stroke="#e6e6e6" stroke-width="1"/>
<text x="80" y="271.00" text-anchor="end" font-family="Helvetica, Arial, sans-serif" font-size="12" fill="#555">56%</text>
<line x1="90" y1="178.00" x2="1450" y2="178.00" stroke="#e6e6e6" stroke-width="1"/>
<text x="80" y="183.00" text-anchor="end" font-family="Helvetica, Arial, sans-serif" font-size="12" fill="#555">75%</text>
<line x1="90" y1="90.00" x2="1450" y2="90.00" stroke="#e6e6e6" stroke-width="1"/>
<text x="80" y="95.00" text-anchor="end" font-family="Helvetica, Arial, sans-serif" font-size="12" fill="#555">94%</text>
<rect x="96.38" y="90.00" width="29.75" height="440.00" fill="#2a8bf2" rx="2" ry="2"/>
<text x="111.25" y="84.00" text-anchor="middle" font-family="Helvetica, Arial, sans-serif" font-size="10" fill="#222">93.75%</text>
<text x="111.25" y="538.00" transform="rotate(55 111.25 538.00)" font-family="Helvetica, Arial, sans-serif" font-size="10" fill="#222">Annapolis Community Health Centre</text>
<rect x="138.88" y="96.83" width="29.75" height="433.17" fill="#2a8bf2" rx="2" ry="2"/>
<text x="153.75" y="90.83" text-anchor="middle" font-family="Helvetica, Arial, sans-serif" font-size="10" fill="#222">92.29%</text>
<text x="153.75" y="538.00" transform="rotate(55 153.75 538.00)" font-family="Helvetica, Arial, sans-serif" font-size="10" fill="#222">Lillian Fraser Memorial Hospital</text>
<rect x="181.38" y="135.58" width="29.75" height="394.42" fill="#2a8bf2" rx="2" ry="2"/>
<text x="196.25" y="129.58" text-anchor="middle" font-family="Helvetica, Arial, sans-serif" font-size="10" fill="#222">84.03%</text>
<text x="196.25" y="538.00" transform="rotate(55 196.25 538.00)" font-family="Helvetica, Arial, sans-serif" font-size="10" fill="#222">North Cumberland Memorial Hospital</text>
<rect x="223.88" y="149.51" width="29.75" height="380.49" fill="#2a8bf2" rx="2" ry="2"/>
<text x="238.75" y="143.51" text-anchor="middle" font-family="Helvetica, Arial, sans-serif" font-size="10" fill="#222">81.07%</text>
<text x="238.75" y="538.00" transform="rotate(55 238.75 538.00)" font-family="Helvetica, Arial, sans-serif" font-size="10" fill="#222">All Saints Springhill Hospital</text>
<rect x="266.38" y="172.33" width="29.75" height="357.67" fill="#2a8bf2" rx="2" ry="2"/>
<text x="281.25" y="166.33" text-anchor="middle" font-family="Helvetica, Arial, sans-serif" font-size="10" fill="#222">76.20%</text>
<text x="281.25" y="538.00" transform="rotate(55 281.25 538.00)" font-family="Helvetica, Arial, sans-serif" font-size="10" fill="#222">Guysborough Memorial Hospital</text>
<rect x="308.88" y="172.54" width="29.75" height="357.46" fill="#2a8bf2" rx="2" ry="2"/>
<text x="323.75" y="166.54" text-anchor="middle" font-family="Helvetica, Arial, sans-serif" font-size="10" fill="#222">76.16%</text>
<text x="323.75" y="538.00" transform="rotate(55 323.75 538.00)" font-family="Helvetica, Arial, sans-serif" font-size="10" fill="#222">St. Mary's Memorial Hospital</text>
<rect x="351.38" y="178.47" width="29.75" height="351.53" fill="#2a8bf2" rx="2" ry="2"/>
<text x="366.25" y="172.47" text-anchor="middle" font-family="Helvetica, Arial, sans-serif" font-size="10" fill="#222">74.90%</text>
<text x="366.25" y="538.00" transform="rotate(55 366.25 538.00)" font-family="Helvetica, Arial, sans-serif" font-size="10" fill="#222">Victoria County Memorial Hospital</text>
<rect x="393.88" y="202.72" width="29.75" height="327.28" fill="#2a8bf2" rx="2" ry="2"/>
<text x="408.75" y="196.72" text-anchor="middle" font-family="Helvetica, Arial, sans-serif" font-size="10" fill="#222">69.73%</text>
<text x="408.75" y="538.00" transform="rotate(55 408.75 538.00)" font-family="Helvetica, Arial, sans-serif" font-size="10" fill="#222">Eastern Memorial Hospital</text>
<rect x="436.38" y="203.83" width="29.75" height="326.17" fill="#2a8bf2" rx="2" ry="2"/>
<text x="451.25" y="197.83" text-anchor="middle" font-family="Helvetica, Arial, sans-serif" font-size="10" fill="#222">69.49%</text>
<text x="451.25" y="538.00" transform="rotate(55 451.25 538.00)" font-family="Helvetica, Arial, sans-serif" font-size="10" fill="#222">Soldiers' Memorial Hospital</text>
<rect x="478.88" y="229.27" width="29.75" height="300.73" fill="#2a8bf2" rx="2" ry="2"/>
<text x="493.75" y="223.27" text-anchor="middle" font-family="Helvetica, Arial, sans-serif" font-size="10" fill="#222">64.07%</text>
<text x="493.75" y="538.00" transform="rotate(55 493.75 538.00)" font-family="Helvetica, Arial, sans-serif" font-size="10" fill="#222">Roseway Hospital</text>
<rect x="521.38" y="241.39" width="29.75" height="288.61" fill="#2a8bf2" rx="2" ry="2"/>
<text x="536.25" y="235.39" text-anchor="middle" font-family="Helvetica, Arial, sans-serif" font-size="10" fill="#222">61.49%</text>
<text x="536.25" y="538.00" transform="rotate(55 536.25 538.00)" font-family="Helvetica, Arial, sans-serif" font-size="10" fill="#222">Sacred Heart Community Health Centre</text>
<rect x="563.88" y="244.30" width="29.75" height="285.70" fill="#2a8bf2" rx="2" ry="2"/>
<text x="578.75" y="238.30" text-anchor="middle" font-family="Helvetica, Arial, sans-serif" font-size="10" fill="#222">60.87%</text>
<text x="578.75" y="538.00" transform="rotate(55 578.75 538.00)" font-family="Helvetica, Arial, sans-serif" font-size="10" fill="#222">Eastern Shore Memorial Hospital</text>
<rect x="606.38" y="252.84" width="29.75" height="277.16" fill="#2a8bf2" rx="2" ry="2"/>
<text x="621.25" y="246.84" text-anchor="middle" font-family="Helvetica, Arial, sans-serif" font-size="10" fill="#222">59.05%</text>
<text x="621.25" y="538.00" transform="rotate(55 621.25 538.00)" font-family="Helvetica, Arial, sans-serif" font-size="10" fill="#222">Strait Richmond Hospital</text>
<rect x="648.88" y="253.72" width="29.75" height="276.28" fill="#2a8bf2" rx="2" ry="2"/>
<text x="663.75" y="247.72" text-anchor="middle" font-family="Helvetica, Arial, sans-serif" font-size="10" fill="#222">58.86%</text>
<text x="663.75" y="538.00" transform="rotate(55 663.75 538.00)" font-family="Helvetica, Arial, sans-serif" font-size="10" fill="#222">Buchanan Memorial Community Health Centre</text>
<rect x="691.38" y="258.63" width="29.75" height="271.37" fill="#2a8bf2" rx="2" ry="2"/>
<text x="706.25" y="252.63" text-anchor="middle" font-family="Helvetica, Arial, sans-serif" font-size="10" fill="#222">57.82%</text>
<text x="706.25" y="538.00" transform="rotate(55 706.25 538.00)" font-family="Helvetica, Arial, sans-serif" font-size="10" fill="#222">Inverness Consolidated Memorial Hospital</text>
<rect x="733.88" y="261.40" width="29.75" height="268.60" fill="#2a8bf2" rx="2" ry="2"/>
<text x="748.75" y="255.40" text-anchor="middle" font-family="Helvetica, Arial, sans-serif" font-size="10" fill="#222">57.23%</text>
<text x="748.75" y="538.00" transform="rotate(55 748.75 538.00)" font-family="Helvetica, Arial, sans-serif" font-size="10" fill="#222">Fishermen's Memorial Hospital</text>
<rect x="776.38" y="262.27" width="29.75" height="267.73" fill="#2a8bf2" rx="2" ry="2"/>
<text x="791.25" y="256.27" text-anchor="middle" font-family="Helvetica, Arial, sans-serif" font-size="10" fill="#222">57.04%</text>
<text x="791.25" y="538.00" transform="rotate(55 791.25 538.00)" font-family="Helvetica, Arial, sans-serif" font-size="10" fill="#222">Twin Oaks Memorial Hospital</text>
<rect x="818.88" y="273.73" width="29.75" height="256.27" fill="#2a8bf2" rx="2" ry="2"/>
<text x="833.75" y="267.73" text-anchor="middle" font-family="Helvetica, Arial, sans-serif" font-size="10" fill="#222">54.60%</text>
<text x="833.75" y="538.00" transform="rotate(55 833.75 538.00)" font-family="Helvetica, Arial, sans-serif" font-size="10" fill="#222">Digby General Hospital</text>
<rect x="861.38" y="280.76" width="29.75" height="249.24" fill="#2a8bf2" rx="2" ry="2"/>
<text x="876.25" y="274.76" text-anchor="middle" font-family="Helvetica, Arial, sans-serif" font-size="10" fill="#222">53.10%</text>
<text x="876.25" y="538.00" transform="rotate(55 876.25 538.00)" font-family="Helvetica, Arial, sans-serif" font-size="10" fill="#222">Cumberland Regional Health Care Centre</text>
<rect x="903.88" y="291.63" width="29.75" height="238.37" fill="#2a8bf2" rx="2" ry="2"/>
<text x="918.75" y="285.63" text-anchor="middle" font-family="Helvetica, Arial, sans-serif" font-size="10" fill="#222">50.79%</text>
<text x="918.75" y="538.00" transform="rotate(55 918.75 538.00)" font-family="Helvetica, Arial, sans-serif" font-size="10" fill="#222">Queens General Hospital</text>
<rect x="946.38" y="329.35" width="29.75" height="200.65" fill="#2a8bf2" rx="2" ry="2"/>
<text x="961.25" y="323.35" text-anchor="middle" font-family="Helvetica, Arial, sans-serif" font-size="10" fill="#222">42.75%</text>
<text x="961.25" y="538.00" transform="rotate(55 961.25 538.00)" font-family="Helvetica, Arial, sans-serif" font-size="10" fill="#222">Hants Community Hospital</text>
<rect x="988.88" y="339.10" width="29.75" height="190.90" fill="#2a8bf2" rx="2" ry="2"/>
<text x="1003.75" y="333.10" text-anchor="middle" font-family="Helvetica, Arial, sans-serif" font-size="10" fill="#222">40.67%</text>
<text x="1003.75" y="538.00" transform="rotate(55 1003.75 538.00)" font-family="Helvetica, Arial, sans-serif" font-size="10" fill="#222">St. Martha's Regional Hospital</text>
<rect x="1031.38" y="343.68" width="29.75" height="186.32" fill="#2a8bf2" rx="2" ry="2"/>
<text x="1046.25" y="337.68" text-anchor="middle" font-family="Helvetica, Arial, sans-serif" font-size="10" fill="#222">39.70%</text>
<text x="1046.25" y="538.00" transform="rotate(55 1046.25 538.00)" font-family="Helvetica, Arial, sans-serif" font-size="10" fill="#222">IWK Health Centre</text>
<rect x="1073.88" y="356.29" width="29.75" height="173.71" fill="#2a8bf2" rx="2" ry="2"/>
<text x="1088.75" y="350.29" text-anchor="middle" font-family="Helvetica, Arial, sans-serif" font-size="10" fill="#222">37.01%</text>
<text x="1088.75" y="538.00" transform="rotate(55 1088.75 538.00)" font-family="Helvetica, Arial, sans-serif" font-size="10" fill="#222">Valley Regional Hospital</text>
<rect x="1116.38" y="364.86" width="29.75" height="165.14" fill="#2a8bf2" rx="2" ry="2"/>
<text x="1131.25" y="358.86" text-anchor="middle" font-family="Helvetica, Arial, sans-serif" font-size="10" fill="#222">35.18%</text>
<text x="1131.25" y="538.00" transform="rotate(55 1131.25 538.00)" font-family="Helvetica, Arial, sans-serif" font-size="10" fill="#222">Cobequid Community Health Centre</text>
<rect x="1158.88" y="375.37" width="29.75" height="154.63" fill="#2a8bf2" rx="2" ry="2"/>
<text x="1173.75" y="369.37" text-anchor="middle" font-family="Helvetica, Arial, sans-serif" font-size="10" fill="#222">32.94%</text>
<text x="1173.75" y="538.00" transform="rotate(55 1173.75 538.00)" font-family="Helvetica, Arial, sans-serif" font-size="10" fill="#222">Aberdeen Hospital</text>
<rect x="1201.38" y="391.07" width="29.75" height="138.93" fill="#2a8bf2" rx="2" ry="2"/>
<text x="1216.25" y="385.07" text-anchor="middle" font-family="Helvetica, Arial, sans-serif" font-size="10" fill="#222">29.60%</text>
<text x="1216.25" y="538.00" transform="rotate(55 1216.25 538.00)" font-family="Helvetica, Arial, sans-serif" font-size="10" fill="#222">Yarmouth Regional Hospital</text>
<rect x="1243.88" y="392.61" width="29.75" height="137.39" fill="#2a8bf2" rx="2" ry="2"/>
<text x="1258.75" y="386.61" text-anchor="middle" font-family="Helvetica, Arial, sans-serif" font-size="10" fill="#222">29.27%</text>
<text x="1258.75" y="538.00" transform="rotate(55 1258.75 538.00)" font-family="Helvetica, Arial, sans-serif" font-size="10" fill="#222">South Shore Regional Hospital</text>
<rect x="1286.38" y="406.74" width="29.75" height="123.26" fill="#2a8bf2" rx="2" ry="2"/>
<text x="1301.25" y="400.74" text-anchor="middle" font-family="Helvetica, Arial, sans-serif" font-size="10" fill="#222">26.26%</text>
<text x="1301.25" y="538.00" transform="rotate(55 1301.25 538.00)" font-family="Helvetica, Arial, sans-serif" font-size="10" fill="#222">Cape Breton Complex</text>
<rect x="1328.88" y="411.31" width="29.75" height="118.69" fill="#2a8bf2" rx="2" ry="2"/>
<text x="1343.75" y="405.31" text-anchor="middle" font-family="Helvetica, Arial, sans-serif" font-size="10" fill="#222">25.29%</text>
<text x="1343.75" y="538.00" transform="rotate(55 1343.75 538.00)" font-family="Helvetica, Arial, sans-serif" font-size="10" fill="#222">Dartmouth General Hospital</text>
<rect x="1371.38" y="415.55" width="29.75" height="114.45" fill="#2a8bf2" rx="2" ry="2"/>
<text x="1386.25" y="409.55" text-anchor="middle" font-family="Helvetica, Arial, sans-serif" font-size="10" fill="#222">24.38%</text>
<text x="1386.25" y="538.00" transform="rotate(55 1386.25 538.00)" font-family="Helvetica, Arial, sans-serif" font-size="10" fill="#222">Colchester East Hants Health Centre</text>
<rect x="1413.88" y="473.57" width="29.75" height="56.43" fill="#2a8bf2" rx="2" ry="2"/>
<text x="1428.75" y="467.57" text-anchor="middle" font-family="Helvetica, Arial, sans-serif" font-size="10" fill="#222">12.02%</text>
<text x="1428.75" y="538.00" transform="rotate(55 1428.75 538.00)" font-family="Helvetica, Arial, sans-serif" font-size="10" fill="#222">QEII</text>
<text x="770.00" y="732" text-anchor="middle" font-family="Helvetica, Arial, sans-serif" font-size="13" fill="#333">Hospital</text>
<text x="24" y="310.00" text-anchor="middle" transform="rotate(-90 24 310.00)" font-family="Helvetica, Arial, sans-serif" font-size="13" fill="#333">Low acuity %</text>
</svg>